<?xml version="1.0" encoding="UTF-8"?>
<svg width="72px" height="72px" viewBox="0 0 72 72" version="1.1" xmlns="http://www.w3.org/2000/svg" xmlns:xlink="http://www.w3.org/1999/xlink">
    <!-- Generator: Sketch 52.4 (67378) - http://www.bohemiancoding.com/sketch -->
    <title>Group 4 Copy 3</title>
    <desc>Created with Sketch.</desc>
    <g id="自助装机" stroke="none" stroke-width="1" fill="none" fill-rule="evenodd">
        <g id="icon" transform="translate(-578.000000, -143.000000)">
            <rect fill="#FFFFFF" x="0" y="0" width="1024" height="561"></rect>
            <g id="Group-4-Copy-3" transform="translate(579.000000, 144.000000)">
                <rect id="Rectangle-10" fill="#FFFFFF" x="0" y="0" width="70" height="70"></rect>
                <g id="显卡" transform="translate(15.000000, 18.000000)">
                    <rect id="Rectangle-34" stroke="#93A1C1" stroke-width="2" x="1" y="3" width="38" height="24" rx="1"></rect>
                    <path d="M6,9 L14,9 C14.5522847,9 15,9.44771525 15,10 L15,10 C15,10.5522847 14.5522847,11 14,11 L6,11 C5.44771525,11 5,10.5522847 5,10 L5,10 C5,9.44771525 5.44771525,9 6,9 Z" id="Rectangle-35" fill="#93A1C1"></path>
                    <path d="M6,14 L14,14 C14.5522847,14 15,14.4477153 15,15 L15,15 C15,15.5522847 14.5522847,16 14,16 L6,16 C5.44771525,16 5,15.5522847 5,15 L5,15 C5,14.4477153 5.44771525,14 6,14 Z" id="Rectangle-35-Copy" fill="#93A1C1"></path>
                    <path d="M6,19 L14,19 C14.5522847,19 15,19.4477153 15,20 L15,20 C15,20.5522847 14.5522847,21 14,21 L6,21 C5.44771525,21 5,20.5522847 5,20 L5,20 C5,19.4477153 5.44771525,19 6,19 Z" id="Rectangle-35-Copy-2" fill="#93A1C1"></path>
                    <g id="显卡-(1)" transform="translate(18.000000, 7.000000)" stroke="#93A1C1" stroke-width="2">
                        <path d="M8.33374023,10 C9.43830973,10 10.3337402,9.1045695 10.3337402,8 C10.3337402,6.8954305 9.43830973,6 8.33374023,6 C7.22917073,6 6.33374023,6.8954305 6.33374023,8 C6.33374023,9.1045695 7.22917073,10 8.33374023,10 Z" id="Oval-14"></path>
                        <path d="M8.37481689,15.6173096 C12.5169525,15.6173096 15.8748169,12.2594452 15.8748169,8.11730957 C15.8748169,3.97517395 12.5169525,0.61730957 8.37481689,0.61730957 C4.23268127,0.61730957 0.874816895,3.97517395 0.874816895,8.11730957 C0.874816895,12.2594452 4.23268127,15.6173096 8.37481689,15.6173096 Z" id="Oval-14-Copy"></path>
                    </g>
                    <rect id="Rectangle-36" fill="#93A1C1" x="0" y="0" width="2" height="35" rx="1"></rect>
                    <path d="M7,27 L7,31 L16,31 L16,27 L7,27 Z" id="Rectangle-37" stroke="#93A1C1" stroke-width="2"></path>
                    <path d="M23.4731445,27 L23.4731445,31 L29.4731445,31 L29.4731445,27 L23.4731445,27 Z" id="Rectangle-37-Copy" stroke="#93A1C1" stroke-width="2"></path>
                </g>
            </g>
        </g>
    </g>
</svg>