<?xml version="1.0" encoding="UTF-8"?>
<svg width="72px" height="72px" viewBox="0 0 72 72" version="1.1" xmlns="http://www.w3.org/2000/svg" xmlns:xlink="http://www.w3.org/1999/xlink">
    <!-- Generator: Sketch 52.4 (67378) - http://www.bohemiancoding.com/sketch -->
    <title>Group 4 Copy 9</title>
    <desc>Created with Sketch.</desc>
    <g id="自助装机" stroke="none" stroke-width="1" fill="none" fill-rule="evenodd">
        <g id="icon" transform="translate(-468.000000, -282.000000)">
            <rect fill="#FFFFFF" x="0" y="0" width="1024" height="561"></rect>
            <g id="Group-4-Copy-9" transform="translate(469.000000, 283.000000)">
                <rect id="Rectangle-10" fill="#FFFFFF" x="0" y="0" width="70" height="70"></rect>
                <g id="散热器-" transform="translate(17.000000, 17.000000)">
                    <rect id="Rectangle-51" stroke="#93A1C1" stroke-width="2" x="1" y="1" width="34" height="34" rx="1"></rect>
                    <circle id="Oval" stroke="#93A1C1" stroke-width="2" cx="18" cy="18" r="13"></circle>
                    <path d="M16.2499612,15.5630516 C14.9205313,12.5455572 12.3878612,10.6318801 8.57817492,9.76157113 L9.02359279,7.81180117 C13.553091,8.8465486 16.6340511,11.2663498 18.1865331,15.0057047 C18.124841,15.0019201 18.0626447,15 18,15 C17.3468914,15 16.7425275,15.2087014 16.2499612,15.5630516 Z M18.478499,15.0379525 C19.6744036,11.9627241 19.2373204,8.81717001 17.1578119,5.50623402 L18.8514655,4.44249645 C21.3226395,8.37703148 21.7901519,12.2666758 20.2437621,16.0085864 C19.7944781,15.5027393 19.1767345,15.1498721 18.478499,15.0379525 Z M20.4279709,16.2375488 C23.4478076,14.9086021 25.3628101,12.3753694 26.2335091,8.56397577 L28.1832791,9.00939364 C27.1490755,13.5365112 24.7312738,16.6166128 20.9952707,18.1698848 C20.9984096,18.1136559 21,18.0570137 21,18 C21,17.3413948 20.787771,16.7323584 20.4279709,16.2375488 Z M20.9638798,18.466923 C24.0369604,19.6595638 27.1803334,19.2215993 30.4888462,17.1436127 L31.5525838,18.8372663 C27.6230427,21.3053038 23.7382784,21.7747528 20.0007428,20.2354415 C20.5043815,19.7843728 20.8546938,19.1656001 20.9638798,18.466923 Z M19.7926797,20.4057008 C21.1033662,23.4600122 23.6204719,25.3743089 27.4197414,26.2134135 L26.988417,28.1663495 C22.477335,27.1700344 19.4117124,24.7572677 17.8725149,20.9973402 C17.9147897,20.9991075 17.9572906,21 18,21 C18.6720807,21 19.2925435,20.7789974 19.7926797,20.4057008 Z M17.5590526,20.9678225 C16.3286783,24.0526615 16.7556248,27.1844588 18.847602,30.4624427 L17.1616753,31.5383846 C14.6763808,27.6440997 14.2147288,23.7703259 15.7849745,20.0233082 C16.239857,20.5210147 16.8602527,20.8648891 17.5590526,20.9678225 Z M15.5851165,19.780311 C12.5332868,21.0915098 10.6203809,23.6080406 9.78166678,27.4055422 L7.82873072,26.9742179 C8.8255452,22.4608746 11.2402318,19.3944403 15.0033951,17.8560023 C15.0011402,17.9037183 15,17.951726 15,18 C15,18.6665513 15.2173811,19.2823306 15.5851165,19.780311 Z M15.0339015,17.5475058 C11.9469152,16.313867 8.81297468,16.7399238 5.53263754,18.8334029 L4.4566956,17.1474762 C8.35584583,14.6590766 12.2344336,14.1993793 15.9858153,15.7766702 C15.4859422,16.2297966 15.1395499,16.8491628 15.0339015,17.5475058 Z" id="Combined-Shape" fill="#93A1C1" fill-rule="nonzero"></path>
                    <circle id="Oval" stroke="#93A1C1" stroke-width="2" cx="18" cy="18" r="4"></circle>
                </g>
            </g>
        </g>
    </g>
</svg>