<?xml version="1.0" encoding="UTF-8"?>
<svg width="70px" height="70px" viewBox="0 0 70 70" version="1.1" xmlns="http://www.w3.org/2000/svg" xmlns:xlink="http://www.w3.org/1999/xlink">
    <!-- Generator: Sketch 52.4 (67378) - http://www.bohemiancoding.com/sketch -->
    <title>Group 4 Copy 4</title>
    <desc>Created with Sketch.</desc>
    <g id="自助装机" stroke="none" stroke-width="1" fill="none" fill-rule="evenodd">
        <g id="icon" transform="translate(-689.000000, -144.000000)">
            <g id="Group-4-Copy-4" transform="translate(689.000000, 144.000000)">
                <rect id="Rectangle-10" fill="#FFFFFF" x="0" y="0" width="70" height="70"></rect>
                <g id="内存条-" transform="translate(15.000000, 20.000000)">
                    <path d="M39,11.0269775 L37.0306299,11.0269775 C36.2467261,10.8008813 36.2467261,10.8008813 36.0206299,10.0169775 L36.0206299,8.05992676 C36.2467261,7.27602296 36.2467261,7.27602296 37.0306299,7.04992676 L39,7.04992676 L39,0.999999996 L0.999999999,0.999999996 L1,7.01647949 L3.0245459,7.01647949 C3.8084497,7.24257569 3.8084497,7.24257569 4.0345459,8.02647949 L4.0345459,9.99408936 C3.8084497,10.7779932 3.8084497,10.7779932 3.0245459,11.0040894 L1,11.0040894 L0.999999999,30 L6.00720215,30 L6.00720215,26.1366211 C6.00720215,25.5291079 6.49968892,25.0366211 7.10720215,25.0366211 L8.9111084,25.0366211 C9.51862162,25.0366211 10.0111084,25.5291079 10.0111084,26.1366211 L10.0111084,30 L14.28125,30 L39,30 L39,11.0269775 Z" id="Rectangle-29" stroke="#93A1C1" stroke-width="2"></path>
                    <path d="M14,24 L14,24 C14.5522847,24 15,24.4477153 15,25 L15,29 L13,29 L13,25 C13,24.4477153 13.4477153,24 14,24 Z" id="Rectangle-32" fill="#93A1C1"></path>
                    <path d="M18,24 L18,24 C18.5522847,24 19,24.4477153 19,25 L19,29 L17,29 L17,25 C17,24.4477153 17.4477153,24 18,24 Z" id="Rectangle-32-Copy" fill="#93A1C1"></path>
                    <path d="M22,24 L22,24 C22.5522847,24 23,24.4477153 23,25 L23,29 L21,29 L21,25 C21,24.4477153 21.4477153,24 22,24 Z" id="Rectangle-32-Copy-2" fill="#93A1C1"></path>
                    <path d="M26,24 L26,24 C26.5522847,24 27,24.4477153 27,25 L27,29 L25,29 L25,25 C25,24.4477153 25.4477153,24 26,24 Z" id="Rectangle-32-Copy-3" fill="#93A1C1"></path>
                    <path d="M30,24 L30,24 C30.5522847,24 31,24.4477153 31,25 L31,29 L29,29 L29,25 C29,24.4477153 29.4477153,24 30,24 Z" id="Rectangle-32-Copy-4" fill="#93A1C1"></path>
                    <path d="M34,24 L34,24 C34.5522847,24 35,24.4477153 35,25 L35,29 L33,29 L33,25 C33,24.4477153 33.4477153,24 34,24 Z" id="Rectangle-32-Copy-5" fill="#93A1C1"></path>
                    <rect id="Rectangle-33" stroke="#93A1C1" stroke-width="2" x="10" y="7" width="20" height="10" rx="1"></rect>
                </g>
            </g>
        </g>
    </g>
</svg>