<?xml version="1.0" encoding="UTF-8"?>
<svg width="72px" height="72px" viewBox="0 0 72 72" version="1.1" xmlns="http://www.w3.org/2000/svg" xmlns:xlink="http://www.w3.org/1999/xlink">
    <!-- Generator: Sketch 52.4 (67378) - http://www.bohemiancoding.com/sketch -->
    <title>Group 4 Copy 11</title>
    <desc>Created with Sketch.</desc>
    <g id="自助装机" stroke="none" stroke-width="1" fill="none" fill-rule="evenodd">
        <g id="icon" transform="translate(-248.000000, -282.000000)">
            <rect fill="#FFFFFF" x="0" y="0" width="1024" height="561"></rect>
            <g id="Group-4-Copy-11" transform="translate(249.000000, 283.000000)">
                <rect id="Rectangle-10" fill="#FFFFFF" x="0" y="0" width="70" height="70"></rect>
                <g id="Group" transform="translate(14.000000, 14.000000)" stroke="#93A1C1" stroke-width="2">
                    <path d="M17.8168432,13.7306228 C15.2903636,12.3832985 13.5756623,9.7585859 13.5756623,6.74137983 C13.5756623,3.4528442 15.6126277,0.630568015 18.5174804,-0.579713293 C18.5174804,-0.531442942 18.5174804,4.01460607 18.5174804,5.71131707 C18.5174804,7.40802807 24.9745496,7.40375717 24.9745496,5.71131707 C24.9745496,4.01887697 24.9745496,-0.531442942 24.9745496,-0.531442942 C27.818859,0.704409422 29.802935,3.49581807 29.802935,6.74137983 C29.802935,9.94819273 27.8659521,12.7116321 25.0760547,13.9692746 L24.7655324,37.81443 C24.7393199,39.8272967 23.1001275,41.4452818 21.0870901,41.4452818 C19.1076016,41.4452818 17.5029091,39.8405894 17.5029091,37.8611009 C17.5029091,37.8455434 17.5030104,37.8299861 17.503213,37.81443 L17.8168432,13.7306228 Z" id="Combined-Shape" stroke-linecap="round" stroke-linejoin="round" transform="translate(21.510507, 20.555962) rotate(-315.000000) translate(-21.510507, -20.555962) "></path>
                    <path d="M20.4424615,26.2396739 C20.4421878,26.5417897 20.4419142,26.8439055 20.4416406,27.1460213 C20.4397451,29.2387518 18.7536132,30.9399786 16.6609828,30.9605252 C14.5903214,30.980856 12.8952373,29.3187347 12.8749065,27.2480733 C12.8748153,27.2387839 12.8747586,27.2294941 12.8747365,27.2202042 C12.8738593,26.8524618 12.8729822,26.4847195 12.8721051,26.1169771 M12.8541174,18.5755814 C12.8485352,16.2352002 12.838611,12.0744376 12.8243449,6.09329352 C12.8243449,4.01176132 14.5338031,2.32434606 16.6425267,2.32434606 C18.7512503,2.32434606 20.4607085,4.01176132 20.4607085,6.09329352 C20.4552415,12.1293326 20.4514395,16.3271321 20.4493024,18.686692" id="Rectangle-3" transform="translate(16.642527, 16.642528) rotate(-45.000000) translate(-16.642527, -16.642528) "></path>
                    <path d="M26.7272727,26.7272727 L29.5909091,29.5909091" id="Line-3" stroke-linecap="square"></path>
                    <path d="M30.3197004,30.4290695 L31.1372435,36.1479349 L34.2169734,36.0811395 L34.9033629,30.442234 C34.0588822,29.4873729 33.2868578,29.0486229 32.5959068,29.0486229 C31.9091221,29.0486229 31.1480094,29.4827526 30.3197004,30.4290695 Z" id="Rectangle-4" transform="translate(32.607771, 32.607771) rotate(-45.000000) translate(-32.607771, -32.607771) "></path>
                </g>
            </g>
        </g>
    </g>
</svg>